# xmcd
#
# Track frame offsets: 
#        150
#        35127
#        87331
#        111058
#        156923
#        204438
#        249369
#        297936
#        300848
#
# Disc length: 4692 seconds
#
# Revision: 3
# Processed by: cddbd v1.5.2PL0 Copyright (c) Steve Scherf et al.
# Submitted via: ExactAudioCopy v0.99pb5
#
DISCID=71125209
DTITLE=Monterey Quartet [Dave Holland, Gonzalo Rubalcaba, Chris Potter
DTITLE=, Eric Harland] - Live At The 2007 Monterey Jazz Festival
DYEAR=2009
DGENRE=Jazz
TTITLE0=Treachery
TTITLE1=Minotaur
TTITLE2=Otra Mirada
TTITLE3=Step To It
TTITLE4=Maiden
TTITLE5=50
TTITLE6=Veil of Tears
TTITLE7=Spoken Introduction
TTITLE8=Ask Me Why
EXTD=YEAR RECORDED: 2007
EXTT0=
EXTT1=
EXTT2=
EXTT3=
EXTT4=
EXTT5=
EXTT6=
EXTT7=
EXTT8=
PLAYORDER=
